<mxfile host="app.diagrams.net" modified="2021-05-26T09:01:30.346Z" agent="5.0 (Windows NT 10.0; Win64; x64) AppleWebKit/537.36 (KHTML, like Gecko) Chrome/90.0.4430.212 Safari/537.36" etag="Ab7PiArc1jSmlEZby_iK" version="14.6.6" type="github">
  <diagram id="prtHgNgQTEPvFCAcTncT" name="Page-1">
    <mxGraphModel dx="1662" dy="1941" grid="1" gridSize="10" guides="1" tooltips="1" connect="1" arrows="1" fold="1" page="1" pageScale="1" pageWidth="827" pageHeight="1169" math="0" shadow="0">
      <root>
        <mxCell id="0" />
        <mxCell id="1" parent="0" />
        <mxCell id="NA5aoDT4IsDwca3TUfHJ-158" value="" style="rounded=0;whiteSpace=wrap;html=1;" vertex="1" parent="1">
          <mxGeometry x="486" y="-60" width="567" height="1150" as="geometry" />
        </mxCell>
        <mxCell id="NA5aoDT4IsDwca3TUfHJ-82" value="" style="shape=process;whiteSpace=wrap;html=1;backgroundOutline=1;" vertex="1" parent="1">
          <mxGeometry x="145" y="190" width="275" height="90" as="geometry" />
        </mxCell>
        <mxCell id="NA5aoDT4IsDwca3TUfHJ-1" value="h5学员重构" style="rounded=0;whiteSpace=wrap;html=1;" vertex="1" parent="1">
          <mxGeometry x="50" y="220" width="90" height="30" as="geometry" />
        </mxCell>
        <mxCell id="NA5aoDT4IsDwca3TUfHJ-5" value="bets-treasure" style="rounded=0;whiteSpace=wrap;html=1;" vertex="1" parent="1">
          <mxGeometry x="513" y="50" width="90" height="30" as="geometry" />
        </mxCell>
        <mxCell id="NA5aoDT4IsDwca3TUfHJ-6" value="class-manage模块" style="rounded=0;whiteSpace=wrap;html=1;" vertex="1" parent="1">
          <mxGeometry x="160" y="220" width="110" height="30" as="geometry" />
        </mxCell>
        <mxCell id="NA5aoDT4IsDwca3TUfHJ-7" value="class-learn模块" style="rounded=0;whiteSpace=wrap;html=1;" vertex="1" parent="1">
          <mxGeometry x="301.25" y="220" width="90" height="30" as="geometry" />
        </mxCell>
        <mxCell id="NA5aoDT4IsDwca3TUfHJ-8" value="class-assignment" style="rounded=0;whiteSpace=wrap;html=1;" vertex="1" parent="1">
          <mxGeometry x="516" y="560" width="110" height="30" as="geometry" />
        </mxCell>
        <mxCell id="NA5aoDT4IsDwca3TUfHJ-9" value="class-material" style="rounded=0;whiteSpace=wrap;html=1;" vertex="1" parent="1">
          <mxGeometry x="516" y="170" width="90" height="30" as="geometry" />
        </mxCell>
        <mxCell id="NA5aoDT4IsDwca3TUfHJ-10" value="class-statistics" style="rounded=0;whiteSpace=wrap;html=1;" vertex="1" parent="1">
          <mxGeometry x="516" y="210" width="90" height="30" as="geometry" />
        </mxCell>
        <mxCell id="NA5aoDT4IsDwca3TUfHJ-11" value="daily-statistics" style="rounded=0;whiteSpace=wrap;html=1;" vertex="1" parent="1">
          <mxGeometry x="516" y="250" width="90" height="30" as="geometry" />
        </mxCell>
        <mxCell id="NA5aoDT4IsDwca3TUfHJ-12" value="exercise-tools" style="rounded=0;whiteSpace=wrap;html=1;" vertex="1" parent="1">
          <mxGeometry x="524.56" y="945" width="90" height="30" as="geometry" />
        </mxCell>
        <mxCell id="NA5aoDT4IsDwca3TUfHJ-13" value="knowledge-graph" style="rounded=0;whiteSpace=wrap;html=1;" vertex="1" parent="1">
          <mxGeometry x="516" y="330" width="120" height="30" as="geometry" />
        </mxCell>
        <mxCell id="NA5aoDT4IsDwca3TUfHJ-14" value="knowledge-learn" style="rounded=0;whiteSpace=wrap;html=1;" vertex="1" parent="1">
          <mxGeometry x="516" y="410" width="120" height="30" as="geometry" />
        </mxCell>
        <mxCell id="NA5aoDT4IsDwca3TUfHJ-15" value="reward-list" style="rounded=0;whiteSpace=wrap;html=1;" vertex="1" parent="1">
          <mxGeometry x="513" y="90" width="90" height="30" as="geometry" />
        </mxCell>
        <mxCell id="NA5aoDT4IsDwca3TUfHJ-16" value="knowledge-list" style="rounded=0;whiteSpace=wrap;html=1;" vertex="1" parent="1">
          <mxGeometry x="516" y="370" width="120" height="30" as="geometry" />
        </mxCell>
        <mxCell id="NA5aoDT4IsDwca3TUfHJ-17" value="modify-plan" style="rounded=0;whiteSpace=wrap;html=1;" vertex="1" parent="1">
          <mxGeometry x="516" y="450" width="100" height="30" as="geometry" />
        </mxCell>
        <mxCell id="NA5aoDT4IsDwca3TUfHJ-18" value="practice-work" style="rounded=0;whiteSpace=wrap;html=1;" vertex="1" parent="1">
          <mxGeometry x="513" y="-40" width="120" height="30" as="geometry" />
        </mxCell>
        <mxCell id="NA5aoDT4IsDwca3TUfHJ-19" value="nine-train" style="rounded=0;whiteSpace=wrap;html=1;" vertex="1" parent="1">
          <mxGeometry x="513" y="10" width="90" height="30" as="geometry" />
        </mxCell>
        <mxCell id="NA5aoDT4IsDwca3TUfHJ-20" value="wisdom-adapt" style="rounded=0;whiteSpace=wrap;html=1;" vertex="1" parent="1">
          <mxGeometry x="516" y="290" width="120" height="30" as="geometry" />
        </mxCell>
        <mxCell id="NA5aoDT4IsDwca3TUfHJ-26" value="叶雷，2天" style="shape=display;whiteSpace=wrap;html=1;" vertex="1" parent="1">
          <mxGeometry x="603" y="55" width="70" height="20" as="geometry" />
        </mxCell>
        <mxCell id="NA5aoDT4IsDwca3TUfHJ-27" value="叶雷，4天&lt;br&gt;家和，4天" style="shape=display;whiteSpace=wrap;html=1;rotation=90;" vertex="1" parent="1">
          <mxGeometry x="519" y="616.62" width="94" height="46.75" as="geometry" />
        </mxCell>
        <mxCell id="NA5aoDT4IsDwca3TUfHJ-28" value="叶雷，1天" style="shape=display;whiteSpace=wrap;html=1;" vertex="1" parent="1">
          <mxGeometry x="603" y="95" width="70" height="20" as="geometry" />
        </mxCell>
        <mxCell id="NA5aoDT4IsDwca3TUfHJ-29" value="叶雷，1.5天" style="shape=display;whiteSpace=wrap;html=1;" vertex="1" parent="1">
          <mxGeometry x="636" y="375" width="70" height="20" as="geometry" />
        </mxCell>
        <mxCell id="NA5aoDT4IsDwca3TUfHJ-30" value="叶雷，1.5天" style="shape=display;whiteSpace=wrap;html=1;" vertex="1" parent="1">
          <mxGeometry x="636" y="415" width="70" height="20" as="geometry" />
        </mxCell>
        <mxCell id="NA5aoDT4IsDwca3TUfHJ-31" value="叶雷，1.5天" style="shape=display;whiteSpace=wrap;html=1;" vertex="1" parent="1">
          <mxGeometry x="636" y="335" width="70" height="20" as="geometry" />
        </mxCell>
        <mxCell id="NA5aoDT4IsDwca3TUfHJ-32" value="家和，3天&lt;br&gt;叶雷，3天" style="shape=display;whiteSpace=wrap;html=1;rotation=90;" vertex="1" parent="1">
          <mxGeometry x="514.44" y="1003.38" width="97.25" height="50.25" as="geometry" />
        </mxCell>
        <mxCell id="NA5aoDT4IsDwca3TUfHJ-33" value="叶雷，2天" style="shape=display;whiteSpace=wrap;html=1;" vertex="1" parent="1">
          <mxGeometry x="606" y="255" width="70" height="20" as="geometry" />
        </mxCell>
        <mxCell id="NA5aoDT4IsDwca3TUfHJ-34" value="叶雷，2天" style="shape=display;whiteSpace=wrap;html=1;" vertex="1" parent="1">
          <mxGeometry x="606" y="215" width="70" height="20" as="geometry" />
        </mxCell>
        <mxCell id="NA5aoDT4IsDwca3TUfHJ-35" value="&amp;nbsp;叶雷有空或家和，3天" style="shape=display;whiteSpace=wrap;html=1;rotation=90;" vertex="1" parent="1">
          <mxGeometry x="276.25" y="310" width="140" height="20" as="geometry" />
        </mxCell>
        <mxCell id="NA5aoDT4IsDwca3TUfHJ-36" value="&amp;nbsp; &amp;nbsp; &amp;nbsp;叶雷有空或家和，2-3天" style="shape=display;whiteSpace=wrap;html=1;rotation=90;" vertex="1" parent="1">
          <mxGeometry x="145" y="315" width="150" height="20" as="geometry" />
        </mxCell>
        <mxCell id="NA5aoDT4IsDwca3TUfHJ-37" value="叶雷，1天" style="shape=display;whiteSpace=wrap;html=1;" vertex="1" parent="1">
          <mxGeometry x="606" y="175" width="70" height="20" as="geometry" />
        </mxCell>
        <mxCell id="NA5aoDT4IsDwca3TUfHJ-39" value="叶雷，1天" style="shape=display;whiteSpace=wrap;html=1;" vertex="1" parent="1">
          <mxGeometry x="603" y="15" width="70" height="20" as="geometry" />
        </mxCell>
        <mxCell id="NA5aoDT4IsDwca3TUfHJ-40" value="家和，2天" style="shape=display;whiteSpace=wrap;html=1;" vertex="1" parent="1">
          <mxGeometry x="633" y="-35" width="70" height="20" as="geometry" />
        </mxCell>
        <mxCell id="NA5aoDT4IsDwca3TUfHJ-41" value="叶雷，1.5天" style="shape=display;whiteSpace=wrap;html=1;" vertex="1" parent="1">
          <mxGeometry x="636" y="295" width="70" height="20" as="geometry" />
        </mxCell>
        <mxCell id="NA5aoDT4IsDwca3TUfHJ-43" value="叶雷，2天" style="shape=display;whiteSpace=wrap;html=1;" vertex="1" parent="1">
          <mxGeometry x="616" y="455" width="70" height="20" as="geometry" />
        </mxCell>
        <mxCell id="NA5aoDT4IsDwca3TUfHJ-46" value="" style="endArrow=classic;html=1;" edge="1" parent="1">
          <mxGeometry width="50" height="50" relative="1" as="geometry">
            <mxPoint x="140" y="234" as="sourcePoint" />
            <mxPoint x="160" y="234.31" as="targetPoint" />
          </mxGeometry>
        </mxCell>
        <mxCell id="NA5aoDT4IsDwca3TUfHJ-49" value="" style="endArrow=classic;html=1;entryX=0;entryY=0.5;entryDx=0;entryDy=0;" edge="1" parent="1" target="NA5aoDT4IsDwca3TUfHJ-7">
          <mxGeometry width="50" height="50" relative="1" as="geometry">
            <mxPoint x="270" y="235" as="sourcePoint" />
            <mxPoint x="270" y="235.30999999999995" as="targetPoint" />
          </mxGeometry>
        </mxCell>
        <mxCell id="NA5aoDT4IsDwca3TUfHJ-83" value="单线重构" style="text;html=1;strokeColor=none;fillColor=none;align=center;verticalAlign=middle;whiteSpace=wrap;rounded=0;" vertex="1" parent="1">
          <mxGeometry x="243.75" y="195" width="77.5" height="20" as="geometry" />
        </mxCell>
        <mxCell id="NA5aoDT4IsDwca3TUfHJ-85" value="" style="endArrow=classic;html=1;exitX=1;exitY=0.5;exitDx=0;exitDy=0;entryX=0.002;entryY=0.258;entryDx=0;entryDy=0;entryPerimeter=0;" edge="1" parent="1" source="NA5aoDT4IsDwca3TUfHJ-7" target="NA5aoDT4IsDwca3TUfHJ-158">
          <mxGeometry width="50" height="50" relative="1" as="geometry">
            <mxPoint x="550" y="300" as="sourcePoint" />
            <mxPoint x="480" y="235" as="targetPoint" />
          </mxGeometry>
        </mxCell>
        <mxCell id="NA5aoDT4IsDwca3TUfHJ-87" value="并发重构" style="text;html=1;strokeColor=none;fillColor=none;align=center;verticalAlign=middle;whiteSpace=wrap;rounded=0;" vertex="1" parent="1">
          <mxGeometry x="430" y="200" width="56" height="20" as="geometry" />
        </mxCell>
        <mxCell id="NA5aoDT4IsDwca3TUfHJ-89" value="topic-collect" style="ellipse;whiteSpace=wrap;html=1;" vertex="1" parent="1">
          <mxGeometry x="744.56" y="860" width="83" height="40" as="geometry" />
        </mxCell>
        <mxCell id="NA5aoDT4IsDwca3TUfHJ-90" value="topic-error" style="ellipse;whiteSpace=wrap;html=1;" vertex="1" parent="1">
          <mxGeometry x="744.56" y="900" width="83" height="40" as="geometry" />
        </mxCell>
        <mxCell id="NA5aoDT4IsDwca3TUfHJ-91" value="topic-exam" style="ellipse;whiteSpace=wrap;html=1;" vertex="1" parent="1">
          <mxGeometry x="744.56" y="940" width="83" height="40" as="geometry" />
        </mxCell>
        <mxCell id="NA5aoDT4IsDwca3TUfHJ-92" value="topic-practise" style="ellipse;whiteSpace=wrap;html=1;" vertex="1" parent="1">
          <mxGeometry x="744.56" y="980" width="83" height="40" as="geometry" />
        </mxCell>
        <mxCell id="NA5aoDT4IsDwca3TUfHJ-93" value="topic-record" style="ellipse;whiteSpace=wrap;html=1;" vertex="1" parent="1">
          <mxGeometry x="744.56" y="1020" width="83" height="40" as="geometry" />
        </mxCell>
        <mxCell id="NA5aoDT4IsDwca3TUfHJ-94" value="" style="endArrow=classic;html=1;exitX=1;exitY=0.5;exitDx=0;exitDy=0;entryX=0;entryY=0.5;entryDx=0;entryDy=0;" edge="1" parent="1" source="NA5aoDT4IsDwca3TUfHJ-12" target="NA5aoDT4IsDwca3TUfHJ-89">
          <mxGeometry width="50" height="50" relative="1" as="geometry">
            <mxPoint x="624.56" y="870" as="sourcePoint" />
            <mxPoint x="674.56" y="820" as="targetPoint" />
            <Array as="points">
              <mxPoint x="664.56" y="910" />
            </Array>
          </mxGeometry>
        </mxCell>
        <mxCell id="NA5aoDT4IsDwca3TUfHJ-96" value="" style="endArrow=classic;html=1;" edge="1" parent="1">
          <mxGeometry width="50" height="50" relative="1" as="geometry">
            <mxPoint x="614.56" y="960" as="sourcePoint" />
            <mxPoint x="744.56" y="920" as="targetPoint" />
            <Array as="points">
              <mxPoint x="674.56" y="930" />
            </Array>
          </mxGeometry>
        </mxCell>
        <mxCell id="NA5aoDT4IsDwca3TUfHJ-97" value="" style="endArrow=classic;html=1;entryX=0;entryY=0.5;entryDx=0;entryDy=0;" edge="1" parent="1" target="NA5aoDT4IsDwca3TUfHJ-91">
          <mxGeometry width="50" height="50" relative="1" as="geometry">
            <mxPoint x="614.56" y="960" as="sourcePoint" />
            <mxPoint x="764.559999999999" y="900" as="targetPoint" />
            <Array as="points" />
          </mxGeometry>
        </mxCell>
        <mxCell id="NA5aoDT4IsDwca3TUfHJ-98" value="" style="endArrow=classic;html=1;exitX=1;exitY=0.5;exitDx=0;exitDy=0;entryX=-0.031;entryY=0.535;entryDx=0;entryDy=0;entryPerimeter=0;" edge="1" parent="1" source="NA5aoDT4IsDwca3TUfHJ-12" target="NA5aoDT4IsDwca3TUfHJ-92">
          <mxGeometry width="50" height="50" relative="1" as="geometry">
            <mxPoint x="644.56" y="990" as="sourcePoint" />
            <mxPoint x="774.559999999999" y="910" as="targetPoint" />
            <Array as="points">
              <mxPoint x="684.56" y="990" />
            </Array>
          </mxGeometry>
        </mxCell>
        <mxCell id="NA5aoDT4IsDwca3TUfHJ-99" value="" style="endArrow=classic;html=1;" edge="1" parent="1" target="NA5aoDT4IsDwca3TUfHJ-93">
          <mxGeometry width="50" height="50" relative="1" as="geometry">
            <mxPoint x="614.56" y="960" as="sourcePoint" />
            <mxPoint x="751.9870000000001" y="1011.4000000000001" as="targetPoint" />
            <Array as="points">
              <mxPoint x="684.56" y="1020" />
            </Array>
          </mxGeometry>
        </mxCell>
        <mxCell id="NA5aoDT4IsDwca3TUfHJ-100" value="收藏集" style="text;html=1;strokeColor=none;fillColor=none;align=center;verticalAlign=middle;whiteSpace=wrap;rounded=0;" vertex="1" parent="1">
          <mxGeometry x="657.56" y="897" width="40" height="20" as="geometry" />
        </mxCell>
        <mxCell id="NA5aoDT4IsDwca3TUfHJ-101" value="错题集" style="text;html=1;strokeColor=none;fillColor=none;align=center;verticalAlign=middle;whiteSpace=wrap;rounded=0;" vertex="1" parent="1">
          <mxGeometry x="659.56" y="925" width="40" height="20" as="geometry" />
        </mxCell>
        <mxCell id="NA5aoDT4IsDwca3TUfHJ-102" value="题库考试" style="text;html=1;strokeColor=none;fillColor=none;align=center;verticalAlign=middle;whiteSpace=wrap;rounded=0;" vertex="1" parent="1">
          <mxGeometry x="657.56" y="950" width="55" height="20" as="geometry" />
        </mxCell>
        <mxCell id="NA5aoDT4IsDwca3TUfHJ-103" value="题库练习" style="text;html=1;strokeColor=none;fillColor=none;align=center;verticalAlign=middle;whiteSpace=wrap;rounded=0;" vertex="1" parent="1">
          <mxGeometry x="652.56" y="975" width="65" height="20" as="geometry" />
        </mxCell>
        <mxCell id="NA5aoDT4IsDwca3TUfHJ-105" value="&lt;font style=&quot;font-size: 10px&quot;&gt;做题记录&lt;/font&gt;" style="text;html=1;strokeColor=none;fillColor=none;align=center;verticalAlign=middle;whiteSpace=wrap;rounded=0;" vertex="1" parent="1">
          <mxGeometry x="660.56" y="1010" width="54" height="20" as="geometry" />
        </mxCell>
        <mxCell id="NA5aoDT4IsDwca3TUfHJ-108" value="level-list" style="rounded=0;whiteSpace=wrap;html=1;" vertex="1" parent="1">
          <mxGeometry x="513" y="130" width="90" height="30" as="geometry" />
        </mxCell>
        <mxCell id="NA5aoDT4IsDwca3TUfHJ-109" value="叶雷，1天" style="shape=display;whiteSpace=wrap;html=1;" vertex="1" parent="1">
          <mxGeometry x="603" y="135" width="70" height="20" as="geometry" />
        </mxCell>
        <mxCell id="NA5aoDT4IsDwca3TUfHJ-110" value="exercises-tips" style="ellipse;whiteSpace=wrap;html=1;" vertex="1" parent="1">
          <mxGeometry x="746" y="620" width="83" height="40" as="geometry" />
        </mxCell>
        <mxCell id="NA5aoDT4IsDwca3TUfHJ-111" value="&amp;nbsp; do-questionnaire" style="ellipse;whiteSpace=wrap;html=1;" vertex="1" parent="1">
          <mxGeometry x="746" y="580" width="83" height="40" as="geometry" />
        </mxCell>
        <mxCell id="NA5aoDT4IsDwca3TUfHJ-112" value="publish-comment" style="ellipse;whiteSpace=wrap;html=1;" vertex="1" parent="1">
          <mxGeometry x="746" y="660" width="83" height="40" as="geometry" />
        </mxCell>
        <mxCell id="NA5aoDT4IsDwca3TUfHJ-113" value="&lt;span&gt;do-examination&amp;nbsp;&lt;/span&gt;" style="ellipse;whiteSpace=wrap;html=1;" vertex="1" parent="1">
          <mxGeometry x="746" y="500" width="83" height="40" as="geometry" />
        </mxCell>
        <mxCell id="NA5aoDT4IsDwca3TUfHJ-114" value="&lt;span&gt;examination-tips&lt;/span&gt;" style="ellipse;whiteSpace=wrap;html=1;" vertex="1" parent="1">
          <mxGeometry x="746" y="540" width="83" height="40" as="geometry" />
        </mxCell>
        <mxCell id="NA5aoDT4IsDwca3TUfHJ-115" value="train-tips" style="ellipse;whiteSpace=wrap;html=1;" vertex="1" parent="1">
          <mxGeometry x="746" y="460" width="100" height="40" as="geometry" />
        </mxCell>
        <mxCell id="NA5aoDT4IsDwca3TUfHJ-116" value="case-tips" style="ellipse;whiteSpace=wrap;html=1;" vertex="1" parent="1">
          <mxGeometry x="746" y="420" width="83" height="40" as="geometry" />
        </mxCell>
        <mxCell id="NA5aoDT4IsDwca3TUfHJ-117" value="case-task" style="ellipse;whiteSpace=wrap;html=1;" vertex="1" parent="1">
          <mxGeometry x="746" y="380" width="83" height="40" as="geometry" />
        </mxCell>
        <mxCell id="NA5aoDT4IsDwca3TUfHJ-118" value="read-task" style="ellipse;whiteSpace=wrap;html=1;" vertex="1" parent="1">
          <mxGeometry x="746" y="700" width="83" height="40" as="geometry" />
        </mxCell>
        <mxCell id="NA5aoDT4IsDwca3TUfHJ-119" value="reading-tips" style="ellipse;whiteSpace=wrap;html=1;" vertex="1" parent="1">
          <mxGeometry x="746" y="740" width="83" height="40" as="geometry" />
        </mxCell>
        <mxCell id="NA5aoDT4IsDwca3TUfHJ-120" value="do-exercises" style="ellipse;whiteSpace=wrap;html=1;" vertex="1" parent="1">
          <mxGeometry x="746" y="780" width="83" height="40" as="geometry" />
        </mxCell>
        <mxCell id="NA5aoDT4IsDwca3TUfHJ-122" value="" style="endArrow=classic;html=1;exitX=1;exitY=0.5;exitDx=0;exitDy=0;entryX=0;entryY=0.5;entryDx=0;entryDy=0;" edge="1" parent="1" source="NA5aoDT4IsDwca3TUfHJ-8" target="NA5aoDT4IsDwca3TUfHJ-117">
          <mxGeometry width="50" height="50" relative="1" as="geometry">
            <mxPoint x="726" y="580" as="sourcePoint" />
            <mxPoint x="776" y="530" as="targetPoint" />
            <Array as="points">
              <mxPoint x="696" y="460" />
            </Array>
          </mxGeometry>
        </mxCell>
        <mxCell id="NA5aoDT4IsDwca3TUfHJ-123" value="" style="endArrow=classic;html=1;exitX=1;exitY=0.5;exitDx=0;exitDy=0;" edge="1" parent="1" source="NA5aoDT4IsDwca3TUfHJ-8">
          <mxGeometry width="50" height="50" relative="1" as="geometry">
            <mxPoint x="639" y="495" as="sourcePoint" />
            <mxPoint x="746" y="440" as="targetPoint" />
            <Array as="points" />
          </mxGeometry>
        </mxCell>
        <mxCell id="NA5aoDT4IsDwca3TUfHJ-124" value="" style="endArrow=classic;html=1;entryX=0.004;entryY=0.567;entryDx=0;entryDy=0;exitX=1;exitY=0.5;exitDx=0;exitDy=0;entryPerimeter=0;" edge="1" parent="1" source="NA5aoDT4IsDwca3TUfHJ-8" target="NA5aoDT4IsDwca3TUfHJ-115">
          <mxGeometry width="50" height="50" relative="1" as="geometry">
            <mxPoint x="626" y="480" as="sourcePoint" />
            <mxPoint x="778.3334523025114" y="434.22758424267727" as="targetPoint" />
            <Array as="points">
              <mxPoint x="716" y="500" />
            </Array>
          </mxGeometry>
        </mxCell>
        <mxCell id="NA5aoDT4IsDwca3TUfHJ-125" value="" style="endArrow=classic;html=1;entryX=0;entryY=0.5;entryDx=0;entryDy=0;exitX=1;exitY=0.5;exitDx=0;exitDy=0;" edge="1" parent="1" source="NA5aoDT4IsDwca3TUfHJ-8" target="NA5aoDT4IsDwca3TUfHJ-113">
          <mxGeometry width="50" height="50" relative="1" as="geometry">
            <mxPoint x="626" y="490" as="sourcePoint" />
            <mxPoint x="788.3334523025114" y="444.22758424267727" as="targetPoint" />
            <Array as="points" />
          </mxGeometry>
        </mxCell>
        <mxCell id="NA5aoDT4IsDwca3TUfHJ-126" value="" style="endArrow=classic;html=1;exitX=1;exitY=0.5;exitDx=0;exitDy=0;entryX=0;entryY=0.5;entryDx=0;entryDy=0;" edge="1" parent="1" source="NA5aoDT4IsDwca3TUfHJ-8" target="NA5aoDT4IsDwca3TUfHJ-114">
          <mxGeometry width="50" height="50" relative="1" as="geometry">
            <mxPoint x="636" y="490" as="sourcePoint" />
            <mxPoint x="756" y="550" as="targetPoint" />
            <Array as="points">
              <mxPoint x="706" y="570" />
            </Array>
          </mxGeometry>
        </mxCell>
        <mxCell id="NA5aoDT4IsDwca3TUfHJ-127" value="" style="endArrow=classic;html=1;exitX=1;exitY=0.5;exitDx=0;exitDy=0;entryX=-0.014;entryY=0.418;entryDx=0;entryDy=0;entryPerimeter=0;" edge="1" parent="1" source="NA5aoDT4IsDwca3TUfHJ-8" target="NA5aoDT4IsDwca3TUfHJ-118">
          <mxGeometry width="50" height="50" relative="1" as="geometry">
            <mxPoint x="679" y="535" as="sourcePoint" />
            <mxPoint x="808.3334523025114" y="464.22758424267727" as="targetPoint" />
            <Array as="points" />
          </mxGeometry>
        </mxCell>
        <mxCell id="NA5aoDT4IsDwca3TUfHJ-128" value="" style="endArrow=classic;html=1;entryX=0;entryY=0.5;entryDx=0;entryDy=0;exitX=1.011;exitY=0.562;exitDx=0;exitDy=0;exitPerimeter=0;" edge="1" parent="1" source="NA5aoDT4IsDwca3TUfHJ-8" target="NA5aoDT4IsDwca3TUfHJ-112">
          <mxGeometry width="50" height="50" relative="1" as="geometry">
            <mxPoint x="636" y="490" as="sourcePoint" />
            <mxPoint x="818.3334523025114" y="474.22758424267727" as="targetPoint" />
            <Array as="points" />
          </mxGeometry>
        </mxCell>
        <mxCell id="NA5aoDT4IsDwca3TUfHJ-129" value="" style="endArrow=classic;html=1;exitX=1.005;exitY=0.562;exitDx=0;exitDy=0;exitPerimeter=0;entryX=-0.024;entryY=0.497;entryDx=0;entryDy=0;entryPerimeter=0;" edge="1" parent="1" source="NA5aoDT4IsDwca3TUfHJ-8" target="NA5aoDT4IsDwca3TUfHJ-111">
          <mxGeometry width="50" height="50" relative="1" as="geometry">
            <mxPoint x="626" y="484" as="sourcePoint" />
            <mxPoint x="726" y="600" as="targetPoint" />
            <Array as="points" />
          </mxGeometry>
        </mxCell>
        <mxCell id="NA5aoDT4IsDwca3TUfHJ-133" value="" style="endArrow=classic;html=1;entryX=-0.017;entryY=0.445;entryDx=0;entryDy=0;exitX=1.013;exitY=0.563;exitDx=0;exitDy=0;exitPerimeter=0;entryPerimeter=0;" edge="1" parent="1" source="NA5aoDT4IsDwca3TUfHJ-8" target="NA5aoDT4IsDwca3TUfHJ-119">
          <mxGeometry width="50" height="50" relative="1" as="geometry">
            <mxPoint x="640.2099999999998" y="496.8599999999999" as="sourcePoint" />
            <mxPoint x="756.0000000000016" y="650" as="targetPoint" />
            <Array as="points">
              <mxPoint x="686" y="680" />
            </Array>
          </mxGeometry>
        </mxCell>
        <mxCell id="NA5aoDT4IsDwca3TUfHJ-134" value="" style="endArrow=classic;html=1;entryX=0;entryY=0.5;entryDx=0;entryDy=0;exitX=1.015;exitY=0.524;exitDx=0;exitDy=0;exitPerimeter=0;" edge="1" parent="1" source="NA5aoDT4IsDwca3TUfHJ-8" target="NA5aoDT4IsDwca3TUfHJ-110">
          <mxGeometry width="50" height="50" relative="1" as="geometry">
            <mxPoint x="626" y="490" as="sourcePoint" />
            <mxPoint x="766.0000000000016" y="660" as="targetPoint" />
            <Array as="points" />
          </mxGeometry>
        </mxCell>
        <mxCell id="NA5aoDT4IsDwca3TUfHJ-135" value="" style="endArrow=classic;html=1;entryX=0;entryY=0.5;entryDx=0;entryDy=0;exitX=1.01;exitY=0.55;exitDx=0;exitDy=0;exitPerimeter=0;" edge="1" parent="1" source="NA5aoDT4IsDwca3TUfHJ-8" target="NA5aoDT4IsDwca3TUfHJ-139">
          <mxGeometry width="50" height="50" relative="1" as="geometry">
            <mxPoint x="626" y="490" as="sourcePoint" />
            <mxPoint x="776.0000000000016" y="670" as="targetPoint" />
            <Array as="points">
              <mxPoint x="683" y="720" />
            </Array>
          </mxGeometry>
        </mxCell>
        <mxCell id="NA5aoDT4IsDwca3TUfHJ-139" value="exercises-lib" style="ellipse;whiteSpace=wrap;html=1;" vertex="1" parent="1">
          <mxGeometry x="746" y="820" width="83" height="40" as="geometry" />
        </mxCell>
        <mxCell id="NA5aoDT4IsDwca3TUfHJ-140" value="" style="endArrow=classic;html=1;entryX=0.008;entryY=0.35;entryDx=0;entryDy=0;entryPerimeter=0;exitX=1;exitY=0.5;exitDx=0;exitDy=0;" edge="1" parent="1" source="NA5aoDT4IsDwca3TUfHJ-8" target="NA5aoDT4IsDwca3TUfHJ-120">
          <mxGeometry width="50" height="50" relative="1" as="geometry">
            <mxPoint x="623" y="580" as="sourcePoint" />
            <mxPoint x="756.9960000000001" y="813.4000000000001" as="targetPoint" />
            <Array as="points">
              <mxPoint x="686" y="710" />
            </Array>
          </mxGeometry>
        </mxCell>
        <mxCell id="NA5aoDT4IsDwca3TUfHJ-141" value="complex-question" style="ellipse;whiteSpace=wrap;html=1;" vertex="1" parent="1">
          <mxGeometry x="923" y="763.38" width="100" height="40" as="geometry" />
        </mxCell>
        <mxCell id="NA5aoDT4IsDwca3TUfHJ-142" value="choice-question" style="ellipse;whiteSpace=wrap;html=1;" vertex="1" parent="1">
          <mxGeometry x="923" y="723.38" width="100" height="40" as="geometry" />
        </mxCell>
        <mxCell id="NA5aoDT4IsDwca3TUfHJ-143" value="entry-subject" style="ellipse;whiteSpace=wrap;html=1;" vertex="1" parent="1">
          <mxGeometry x="923" y="803.38" width="83" height="40" as="geometry" />
        </mxCell>
        <mxCell id="NA5aoDT4IsDwca3TUfHJ-144" value="fill-blanks" style="ellipse;whiteSpace=wrap;html=1;" vertex="1" parent="1">
          <mxGeometry x="923" y="843.38" width="83" height="40" as="geometry" />
        </mxCell>
        <mxCell id="NA5aoDT4IsDwca3TUfHJ-145" value="form-subject" style="ellipse;whiteSpace=wrap;html=1;" vertex="1" parent="1">
          <mxGeometry x="923" y="883.38" width="83" height="40" as="geometry" />
        </mxCell>
        <mxCell id="NA5aoDT4IsDwca3TUfHJ-146" value="sketch-question" style="ellipse;whiteSpace=wrap;html=1;" vertex="1" parent="1">
          <mxGeometry x="923" y="923.38" width="90" height="40" as="geometry" />
        </mxCell>
        <mxCell id="NA5aoDT4IsDwca3TUfHJ-147" value="video-transfer" style="ellipse;whiteSpace=wrap;html=1;" vertex="1" parent="1">
          <mxGeometry x="923" y="963.38" width="83" height="40" as="geometry" />
        </mxCell>
        <mxCell id="NA5aoDT4IsDwca3TUfHJ-148" value="" style="endArrow=classic;html=1;exitX=1;exitY=0.5;exitDx=0;exitDy=0;entryX=-0.006;entryY=0.61;entryDx=0;entryDy=0;entryPerimeter=0;" edge="1" parent="1" source="NA5aoDT4IsDwca3TUfHJ-139" target="NA5aoDT4IsDwca3TUfHJ-142">
          <mxGeometry width="50" height="50" relative="1" as="geometry">
            <mxPoint x="624.56" y="970" as="sourcePoint" />
            <mxPoint x="754.56" y="890" as="targetPoint" />
            <Array as="points">
              <mxPoint x="883" y="780" />
            </Array>
          </mxGeometry>
        </mxCell>
        <mxCell id="NA5aoDT4IsDwca3TUfHJ-149" value="" style="endArrow=classic;html=1;entryX=0;entryY=0.5;entryDx=0;entryDy=0;exitX=1;exitY=0.5;exitDx=0;exitDy=0;" edge="1" parent="1" source="NA5aoDT4IsDwca3TUfHJ-139" target="NA5aoDT4IsDwca3TUfHJ-141">
          <mxGeometry width="50" height="50" relative="1" as="geometry">
            <mxPoint x="833" y="840" as="sourcePoint" />
            <mxPoint x="933" y="761.9800000000005" as="targetPoint" />
            <Array as="points">
              <mxPoint x="883" y="800" />
            </Array>
          </mxGeometry>
        </mxCell>
        <mxCell id="NA5aoDT4IsDwca3TUfHJ-150" value="" style="endArrow=classic;html=1;entryX=0;entryY=0.5;entryDx=0;entryDy=0;exitX=1;exitY=0.5;exitDx=0;exitDy=0;" edge="1" parent="1" source="NA5aoDT4IsDwca3TUfHJ-139" target="NA5aoDT4IsDwca3TUfHJ-143">
          <mxGeometry width="50" height="50" relative="1" as="geometry">
            <mxPoint x="833" y="840" as="sourcePoint" />
            <mxPoint x="933.0000000000114" y="793.3800000000001" as="targetPoint" />
            <Array as="points">
              <mxPoint x="873" y="830" />
            </Array>
          </mxGeometry>
        </mxCell>
        <mxCell id="NA5aoDT4IsDwca3TUfHJ-151" value="" style="endArrow=classic;html=1;entryX=0;entryY=0.5;entryDx=0;entryDy=0;exitX=1;exitY=0.5;exitDx=0;exitDy=0;" edge="1" parent="1" source="NA5aoDT4IsDwca3TUfHJ-139" target="NA5aoDT4IsDwca3TUfHJ-144">
          <mxGeometry width="50" height="50" relative="1" as="geometry">
            <mxPoint x="833" y="840" as="sourcePoint" />
            <mxPoint x="933" y="833.3800000000001" as="targetPoint" />
            <Array as="points">
              <mxPoint x="893" y="863" />
            </Array>
          </mxGeometry>
        </mxCell>
        <mxCell id="NA5aoDT4IsDwca3TUfHJ-152" value="" style="endArrow=classic;html=1;entryX=0;entryY=0.415;entryDx=0;entryDy=0;exitX=1;exitY=0.5;exitDx=0;exitDy=0;entryPerimeter=0;" edge="1" parent="1" source="NA5aoDT4IsDwca3TUfHJ-139" target="NA5aoDT4IsDwca3TUfHJ-145">
          <mxGeometry width="50" height="50" relative="1" as="geometry">
            <mxPoint x="849" y="860" as="sourcePoint" />
            <mxPoint x="943" y="843.3800000000001" as="targetPoint" />
            <Array as="points">
              <mxPoint x="883" y="880" />
            </Array>
          </mxGeometry>
        </mxCell>
        <mxCell id="NA5aoDT4IsDwca3TUfHJ-153" value="" style="endArrow=classic;html=1;entryX=0;entryY=0.5;entryDx=0;entryDy=0;exitX=1;exitY=0.5;exitDx=0;exitDy=0;" edge="1" parent="1" source="NA5aoDT4IsDwca3TUfHJ-139" target="NA5aoDT4IsDwca3TUfHJ-146">
          <mxGeometry width="50" height="50" relative="1" as="geometry">
            <mxPoint x="828" y="841" as="sourcePoint" />
            <mxPoint x="953" y="853.3800000000001" as="targetPoint" />
            <Array as="points">
              <mxPoint x="883" y="910" />
            </Array>
          </mxGeometry>
        </mxCell>
        <mxCell id="NA5aoDT4IsDwca3TUfHJ-154" value="" style="endArrow=classic;html=1;entryX=0;entryY=0.5;entryDx=0;entryDy=0;exitX=1;exitY=0.513;exitDx=0;exitDy=0;exitPerimeter=0;" edge="1" parent="1" source="NA5aoDT4IsDwca3TUfHJ-139" target="NA5aoDT4IsDwca3TUfHJ-147">
          <mxGeometry width="50" height="50" relative="1" as="geometry">
            <mxPoint x="833" y="840" as="sourcePoint" />
            <mxPoint x="933" y="953.3800000000001" as="targetPoint" />
            <Array as="points">
              <mxPoint x="893" y="950" />
            </Array>
          </mxGeometry>
        </mxCell>
        <mxCell id="NA5aoDT4IsDwca3TUfHJ-160" value="换肤和业务同时进行即可" style="shape=callout;whiteSpace=wrap;html=1;perimeter=calloutPerimeter;" vertex="1" parent="1">
          <mxGeometry x="25" y="160" width="95" height="60" as="geometry" />
        </mxCell>
        <mxCell id="NA5aoDT4IsDwca3TUfHJ-161" value="计划预估4~5周左右全部重构完成" style="ellipse;shape=cloud;whiteSpace=wrap;html=1;" vertex="1" parent="1">
          <mxGeometry x="50" y="-35" width="230" height="125" as="geometry" />
        </mxCell>
        <mxCell id="NA5aoDT4IsDwca3TUfHJ-165" value="" style="endArrow=none;html=1;entryX=0.037;entryY=0.002;entryDx=0;entryDy=0;entryPerimeter=0;exitX=0.037;exitY=1.001;exitDx=0;exitDy=0;exitPerimeter=0;" edge="1" parent="1" source="NA5aoDT4IsDwca3TUfHJ-158" target="NA5aoDT4IsDwca3TUfHJ-158">
          <mxGeometry width="50" height="50" relative="1" as="geometry">
            <mxPoint x="760" y="440" as="sourcePoint" />
            <mxPoint x="810" y="390" as="targetPoint" />
          </mxGeometry>
        </mxCell>
        <mxCell id="NA5aoDT4IsDwca3TUfHJ-166" value="" style="endArrow=none;html=1;entryX=0.037;entryY=0.002;entryDx=0;entryDy=0;entryPerimeter=0;exitX=0.037;exitY=1.001;exitDx=0;exitDy=0;exitPerimeter=0;" edge="1" parent="1">
          <mxGeometry width="50" height="50" relative="1" as="geometry">
            <mxPoint x="1029.9989999999998" y="1088.8499999999997" as="sourcePoint" />
            <mxPoint x="1029.9989999999998" y="-60.00000000000004" as="targetPoint" />
          </mxGeometry>
        </mxCell>
      </root>
    </mxGraphModel>
  </diagram>
</mxfile>
